<?xml version="1.0" standalone="no"?>
<!DOCTYPE svg PUBLIC "-//W3C//DTD SVG 20010904//EN"
 "http://www.w3.org/TR/2001/REC-SVG-20010904/DTD/svg10.dtd">
<svg version="1.0" xmlns="http://www.w3.org/2000/svg"
 width="1640.000000pt" height="2360.000000pt" viewBox="0 0 1640.000000 2360.000000"
 preserveAspectRatio="xMidYMid meet">

<g transform="translate(0.000000,2360.000000) scale(0.100000,-0.100000)"
fill="#000000" stroke="none">
<path d="M7787 22856 c-20 -8 -61 -31 -90 -53 -28 -21 -73 -51 -98 -66 -42
-24 -113 -105 -172 -197 -42 -65 -101 -378 -117 -620 -21 -323 -38 -422 -135
-779 -29 -108 -31 -153 -10 -316 31 -246 36 -361 24 -620 -11 -251 -16 -298
-65 -565 -35 -187 -36 -329 -6 -493 l22 -118 -29 -43 c-66 -95 -216 -204 -332
-241 -105 -33 -121 -42 -252 -139 -62 -45 -138 -97 -170 -115 -32 -18 -113
-76 -180 -128 -132 -103 -188 -136 -263 -154 -27 -7 -74 -23 -104 -37 -71 -31
-285 -108 -375 -133 -38 -11 -103 -34 -144 -51 -41 -17 -79 -31 -85 -31 -6 0
-49 22 -96 48 -47 26 -125 62 -175 80 -150 55 -199 81 -358 187 -83 56 -197
123 -252 149 -181 85 -612 237 -799 280 -94 23 -263 71 -376 109 -266 88 -393
125 -510 149 -52 11 -128 27 -169 36 -94 20 -296 24 -331 6 -80 -42 -205 -167
-248 -247 -18 -34 -42 -193 -42 -280 0 -137 52 -287 237 -684 35 -74 63 -164
92 -295 11 -49 30 -117 41 -150 11 -33 39 -123 61 -200 41 -144 41 -144 271
-580 101 -191 176 -329 238 -435 57 -98 90 -168 206 -426 182 -411 295 -578
501 -745 148 -120 335 -294 410 -381 28 -33 93 -122 145 -196 250 -366 349
-482 521 -611 72 -54 143 -110 155 -124 l24 -25 4 -478 c3 -365 8 -498 19
-563 29 -166 15 -313 -46 -492 -110 -321 -126 -437 -135 -953 -5 -311 -4 -390
10 -486 53 -387 63 -769 27 -1100 -39 -366 -65 -509 -151 -830 -106 -399 -115
-445 -204 -1020 -61 -389 -76 -563 -76 -853 0 -236 10 -352 56 -622 49 -293
69 -390 114 -540 94 -311 192 -783 210 -1014 6 -69 15 -180 21 -246 5 -66 12
-192 15 -280 6 -182 10 -213 26 -197 15 15 15 309 0 592 -18 357 -92 771 -213
1187 -47 164 -109 486 -144 757 -18 138 -21 545 -6 751 13 172 108 803 162
1073 11 56 51 216 88 355 38 138 77 294 87 345 10 50 21 92 24 92 9 0 70 -274
82 -365 5 -44 21 -114 33 -155 34 -108 60 -199 94 -330 16 -63 36 -131 44
-150 9 -19 20 -60 25 -91 23 -122 131 -358 202 -441 55 -63 164 -134 278 -180
113 -45 257 -120 370 -194 45 -30 106 -66 134 -80 29 -14 73 -41 100 -59 100
-69 190 -84 216 -35 17 33 10 276 -11 341 -22 71 -76 147 -192 270 -210 222
-254 292 -381 610 -84 210 -127 350 -139 444 -4 33 -25 115 -46 183 -45 141
-49 206 -19 276 19 46 29 52 80 47 35 -3 69 -31 231 -193 79 -79 173 -163 209
-188 40 -27 87 -71 120 -114 30 -38 80 -97 110 -130 31 -34 70 -80 88 -102 18
-23 56 -57 85 -75 28 -19 89 -66 135 -105 45 -39 117 -90 160 -114 94 -53 185
-126 273 -218 47 -48 126 -109 263 -201 285 -191 390 -284 576 -506 164 -196
237 -269 390 -392 153 -123 232 -173 278 -173 29 0 157 32 237 60 33 12 116
37 185 56 93 26 178 60 330 134 113 54 238 108 277 120 51 14 92 35 137 69 35
27 87 56 115 66 73 24 224 127 314 214 44 42 111 119 150 171 39 52 108 133
152 180 44 47 100 112 124 145 25 33 68 85 96 115 100 105 228 266 294 365 89
136 373 509 522 687 59 71 257 238 309 261 38 18 67 21 185 21 l140 1 3 -90
c4 -116 -10 -184 -58 -288 -22 -46 -55 -138 -74 -203 -38 -132 -161 -387 -221
-457 -19 -22 -69 -108 -111 -191 -124 -245 -154 -290 -313 -462 -214 -233
-406 -410 -546 -504 -44 -29 -107 -76 -140 -104 -33 -29 -105 -87 -160 -131
-215 -171 -295 -245 -320 -295 -32 -63 -31 -85 3 -119 56 -57 165 -44 357 42
55 24 197 75 315 111 426 134 587 193 697 258 157 94 323 227 504 408 287 286
388 419 635 835 36 61 75 120 87 133 l21 22 29 -50 c31 -54 94 -259 177 -578
39 -146 54 -228 65 -340 20 -215 67 -410 131 -548 56 -123 109 -259 147 -380
19 -61 45 -130 56 -153 12 -23 28 -87 37 -143 13 -86 62 -246 95 -309 12 -24
-15 -164 -77 -395 -84 -313 -164 -525 -333 -883 -126 -266 -187 -378 -278
-509 -60 -87 -74 -129 -40 -116 19 7 114 138 178 246 72 121 288 553 349 698
122 291 242 679 256 828 4 43 36 155 90 317 94 283 129 428 138 565 3 52 15
140 25 195 32 161 43 373 36 640 -4 132 -11 269 -16 305 -6 36 -14 107 -19
157 -5 51 -20 140 -34 198 -43 178 -65 226 -301 680 -89 169 -137 278 -221
495 l-64 164 -10 181 c-14 251 -23 312 -91 618 l-39 178 4 572 c3 315 8 640
12 722 4 94 2 201 -5 285 -13 146 -38 355 -47 382 -4 15 -1 16 28 7 41 -11 40
-11 36 3 -2 6 -19 17 -37 23 -32 10 -34 15 -61 120 -16 61 -40 143 -54 184
-15 41 -26 75 -26 77 0 1 19 5 43 8 54 8 85 26 42 25 -16 -1 -43 -4 -60 -8
-30 -7 -30 -6 -83 103 -29 60 -49 113 -45 117 5 5 55 26 113 47 57 22 106 45
108 50 2 6 -50 -7 -114 -28 -65 -22 -122 -40 -126 -40 -4 0 -14 14 -23 30 -17
34 -24 27 62 60 46 19 12 32 -36 15 -24 -8 -47 -15 -51 -15 -4 0 -27 37 -50
83 -24 45 -80 150 -125 232 -80 146 -83 154 -106 280 -25 141 -26 170 -18 855
3 298 3 308 -22 420 -31 135 -145 512 -199 655 -20 55 -61 147 -90 205 -29 58
-70 150 -90 205 -35 95 -119 287 -216 493 -47 100 -158 269 -318 481 -247 327
-228 290 -270 505 -54 267 -114 484 -167 604 -16 34 -42 111 -59 170 -32 111
-150 366 -252 543 -33 58 -59 117 -67 154 -19 92 -39 152 -81 245 -22 47 -60
139 -85 205 -26 66 -61 145 -79 175 -19 30 -63 114 -99 185 -37 72 -89 166
-117 210 -28 44 -65 106 -81 138 -16 31 -44 81 -62 110 -19 28 -41 70 -49 92
-58 148 -133 279 -244 425 -64 85 -142 182 -174 215 -32 34 -72 90 -90 125
-66 131 -397 615 -518 757 -144 169 -174 208 -197 253 -10 19 -41 62 -69 95
-29 33 -69 83 -90 110 -65 87 -128 146 -227 211 -53 35 -134 100 -180 145
-158 155 -259 201 -362 165z m337 -682 c34 -21 86 -51 116 -67 127 -69 187
-117 295 -239 61 -67 133 -147 161 -178 28 -30 71 -82 96 -115 68 -89 149
-162 284 -253 131 -88 237 -190 299 -288 21 -32 63 -86 94 -119 49 -52 162
-192 254 -317 15 -21 45 -76 67 -123 21 -47 43 -85 47 -85 9 0 24 -31 52 -115
12 -33 32 -69 45 -80 13 -11 43 -58 66 -105 23 -47 50 -96 60 -110 10 -14 59
-104 110 -200 51 -96 101 -187 111 -202 11 -14 40 -75 65 -135 41 -98 46 -116
46 -188 0 -81 -10 -140 -38 -230 -25 -76 -131 -320 -181 -412 -39 -73 -49 -84
-81 -93 -64 -17 -258 -12 -358 10 -49 11 -103 20 -119 20 -17 0 -89 21 -160
46 -72 25 -168 59 -215 74 -444 149 -546 197 -755 354 -82 62 -193 152 -245
201 -52 48 -162 139 -245 200 -201 152 -427 360 -449 416 -10 23 -24 90 -33
148 -17 112 -17 117 21 486 8 77 20 199 26 270 15 168 71 510 105 645 66 268
223 676 304 794 29 42 33 44 63 36 17 -5 58 -26 92 -46z m-5124 -3745 c24 -5
96 -19 160 -30 196 -33 513 -156 868 -336 56 -29 107 -53 112 -53 5 0 34 -9
64 -21 39 -14 81 -43 142 -100 78 -71 171 -141 314 -236 60 -40 165 -162 191
-221 15 -34 19 -68 19 -155 0 -115 24 -280 74 -507 42 -196 56 -317 56 -499 0
-103 -4 -171 -10 -171 -27 0 -113 37 -176 75 -116 72 -187 158 -314 380 -75
131 -150 239 -219 316 -90 100 -262 171 -452 185 -127 10 -189 -6 -249 -64
-58 -57 -70 -94 -70 -217 0 -115 20 -208 64 -298 29 -60 55 -91 153 -187 65
-63 160 -149 212 -190 52 -41 121 -98 153 -127 45 -39 122 -83 323 -183 341
-171 413 -226 423 -328 4 -45 1 -55 -37 -110 -23 -34 -46 -73 -51 -87 -16 -41
-104 -89 -210 -115 -52 -12 -131 -37 -176 -56 -44 -18 -98 -35 -120 -39 -21
-4 -67 -20 -101 -37 l-62 -29 -63 15 c-35 8 -101 22 -146 31 -114 23 -168 43
-300 111 -191 99 -277 199 -342 399 -59 180 -453 917 -566 1058 -26 33 -26 37
-25 168 1 81 -4 165 -13 214 -20 110 -35 313 -46 615 -8 231 -12 271 -44 426
-19 93 -38 198 -41 231 l-7 61 43 44 44 43 120 16 c143 20 244 22 305 8z
m5961 -1223 c24 -8 125 -19 224 -26 99 -6 221 -17 270 -25 50 -7 151 -16 225
-20 409 -19 479 -39 691 -196 111 -83 133 -110 117 -145 -8 -17 -20 -21 -60
-23 -86 -3 -189 -20 -233 -40 -23 -10 -82 -46 -131 -78 -109 -73 -138 -88
-189 -98 -52 -9 -87 -27 -160 -83 -91 -69 -152 -130 -198 -202 -47 -72 -47
-70 -29 -290 8 -107 15 -137 45 -210 31 -75 57 -209 57 -292 0 -10 -44 -14
-194 -15 l-194 -3 -59 40 c-95 63 -243 215 -292 297 -23 40 -79 112 -124 161
-195 209 -302 348 -372 484 -45 86 -49 100 -53 180 -6 125 9 196 70 319 43 86
68 121 129 183 l75 77 79 8 c130 14 257 12 306 -3z m-4992 -266 c188 -52 283
-144 446 -430 57 -100 134 -218 183 -278 72 -88 260 -203 358 -218 24 -3 44
-10 44 -14 0 -4 -21 -54 -46 -111 -61 -140 -72 -172 -80 -229 l-6 -48 -72 58
c-73 60 -248 159 -461 260 -66 32 -140 75 -165 97 -25 21 -103 87 -175 145
-165 135 -318 291 -345 350 -34 78 -50 159 -50 259 0 83 3 100 23 130 12 19
38 40 57 47 47 17 195 8 289 -18z m6329 -304 c51 -27 74 -62 97 -154 13 -48
29 -152 36 -230 l12 -141 -27 -36 c-101 -132 -385 -294 -497 -283 -29 3 -34 6
-32 28 2 29 -14 141 -24 165 -5 14 1 13 38 -5 68 -35 96 -40 175 -30 98 13
165 42 215 97 77 84 103 184 75 293 -27 105 -98 198 -183 238 l-34 16 53 28
c63 32 62 32 96 14z m-131 -95 c134 -97 193 -272 134 -394 -43 -88 -109 -134
-229 -157 -71 -14 -112 -10 -176 18 -42 19 -46 24 -65 89 -11 37 -23 88 -26
113 l-7 45 21 -33 c32 -50 76 -72 146 -72 44 0 71 6 100 23 72 41 115 133 96
205 -16 58 -36 79 -96 97 -30 10 -55 20 -55 24 0 8 92 70 106 70 6 1 29 -12
51 -28z m573 -26 c16 -8 40 -30 54 -47 29 -39 151 -290 178 -368 24 -70 39
-293 40 -570 0 -246 3 -257 87 -300 32 -16 84 -57 121 -95 106 -109 181 -151
196 -110 3 8 -5 47 -19 87 -13 40 -28 100 -32 133 -8 65 -57 218 -98 306 -15
30 -56 101 -92 159 -68 109 -81 139 -71 165 7 18 2 17 146 44 194 36 255 26
338 -53 54 -51 68 -83 111 -250 33 -127 50 -175 86 -235 100 -171 125 -267
125 -478 0 -115 5 -155 26 -238 48 -189 41 -387 -20 -549 -24 -62 -72 -284
-78 -356 -3 -30 -13 -12 -74 135 -39 94 -83 217 -98 275 -33 126 -38 135 -62
135 -30 0 -29 -51 6 -170 29 -101 128 -340 171 -413 10 -18 19 -36 19 -39 0
-3 -39 30 -87 74 -49 43 -113 99 -143 123 -30 24 -74 61 -97 82 -26 23 -48 35
-58 32 -40 -16 -3 -62 145 -181 41 -33 113 -96 160 -139 47 -44 107 -98 133
-120 26 -23 47 -46 47 -52 0 -6 35 -47 78 -93 42 -45 129 -148 194 -228 l116
-146 -31 -19 c-63 -39 -151 -122 -184 -174 -42 -66 -39 -90 4 -29 30 44 139
137 200 172 26 15 34 16 47 6 23 -20 20 -37 -14 -63 -68 -53 -180 -228 -180
-280 0 -17 10 -8 40 38 29 45 62 77 126 122 48 34 93 62 100 62 14 0 89 -109
111 -162 11 -24 9 -29 -25 -54 -52 -39 -192 -175 -192 -187 0 -6 24 12 53 39
61 58 172 144 185 144 12 0 94 -208 96 -244 1 -25 -4 -30 -41 -41 -71 -21
-253 -134 -253 -157 0 -13 8 -10 58 27 52 37 179 91 227 97 29 3 30 2 41 -62
6 -36 14 -83 18 -106 l6 -40 -68 -14 c-111 -22 -294 -91 -279 -106 3 -3 52 10
108 30 115 39 225 64 235 53 4 -4 9 -41 12 -82 l5 -76 -54 8 c-86 13 -246 10
-261 -5 -10 -10 3 -11 63 -6 43 4 112 1 162 -6 l87 -12 0 -63 c0 -116 -93
-343 -195 -475 -72 -94 -186 -176 -304 -221 -63 -23 -292 -76 -389 -89 -76
-10 -89 -20 -157 -125 -73 -113 -199 -221 -385 -332 -183 -109 -324 -171 -527
-229 -107 -31 -148 -38 -248 -42 -141 -5 -271 10 -375 44 -198 65 -608 304
-603 352 4 37 98 222 163 322 114 174 131 189 305 275 85 42 157 80 160 85 14
22 -21 18 -112 -14 l-98 -35 55 50 c30 28 99 82 153 120 53 39 97 74 97 79 0
14 -4 13 -73 -21 -105 -54 -178 -108 -283 -213 -56 -56 -146 -136 -200 -179
-109 -85 -195 -165 -295 -275 l-67 -72 -78 62 c-44 34 -133 110 -199 168 -118
105 -305 240 -332 240 -18 0 -28 -29 -17 -48 6 -8 56 -47 111 -86 56 -39 146
-111 200 -160 54 -49 137 -120 185 -158 l87 -69 -62 -92 c-54 -79 -167 -283
-167 -301 0 -3 4 -6 10 -6 5 0 23 27 40 60 41 81 103 181 158 257 l45 62 43
-31 c23 -17 57 -42 73 -57 l31 -26 -20 -65 c-19 -64 -62 -262 -74 -348 -6 -37
-4 -43 10 -40 13 2 24 40 50 166 30 148 60 262 69 262 2 0 59 -36 127 -80 132
-87 408 -228 498 -254 30 -9 69 -21 86 -26 56 -18 177 -29 312 -30 l134 0 -26
-30 c-32 -38 -56 -118 -56 -184 0 -69 -28 -222 -47 -260 -8 -17 -36 -62 -60
-99 -42 -63 -67 -114 -189 -391 -24 -54 -66 -128 -93 -165 -27 -36 -72 -111
-101 -166 -90 -172 -169 -277 -216 -289 -31 -8 -188 -236 -240 -350 -21 -47
-43 -84 -49 -83 -10 4 -180 186 -292 314 -76 86 -344 295 -486 378 -386 227
-401 238 -487 386 -53 90 -145 193 -290 326 -27 24 -61 72 -85 118 -33 63 -54
88 -119 143 -133 113 -175 168 -206 271 -21 71 -91 173 -228 331 -40 46 -72
91 -72 101 0 9 -23 63 -51 119 -46 91 -64 115 -180 235 -127 130 -131 135
-158 217 -17 48 -31 113 -34 155 l-4 71 73 31 c200 84 373 120 616 128 170 6
277 -5 396 -39 63 -18 75 -19 83 -7 14 23 5 33 -52 56 -108 43 -211 58 -399
57 -264 -2 -479 -46 -655 -134 l-74 -37 -18 26 c-22 34 -161 198 -234 278 -75
81 -116 141 -146 216 -65 161 -190 292 -364 383 -140 72 -142 76 -93 118 34
29 48 34 109 39 180 15 251 72 317 260 24 67 36 85 88 134 41 38 75 82 106
139 62 114 124 161 198 150 l41 -6 -3 -85 -3 -84 33 -14 c56 -24 182 -131 255
-219 39 -45 109 -135 156 -199 100 -135 107 -141 144 -137 21 2 36 16 60 52
67 103 117 151 205 194 107 53 155 94 184 156 29 63 30 85 2 166 -34 103 -108
171 -218 200 -45 12 -171 88 -187 112 -19 31 -48 42 -109 44 -75 2 -115 23
-211 108 -67 59 -120 82 -259 117 -47 12 -99 31 -117 43 -40 27 -148 165 -181
233 -81 162 53 320 205 242 23 -11 78 -58 123 -103 85 -86 130 -113 226 -136
61 -15 190 -16 260 -2 38 7 52 5 90 -13 135 -66 183 -55 199 45 6 31 11 36 68
58 74 28 119 71 175 167 68 115 108 216 108 274 0 68 21 68 87 -2 46 -49 52
-59 63 -125 10 -61 19 -81 53 -124 23 -28 48 -59 56 -70 11 -14 17 -72 24
-206 9 -178 11 -192 44 -282 58 -155 111 -252 182 -327 16 -18 35 -33 40 -33
24 0 91 74 124 138 19 37 51 114 71 171 48 138 70 175 130 215 71 48 228 96
314 96 79 0 176 -21 234 -51 68 -35 170 -124 213 -186 81 -118 161 -176 282
-208 31 -8 79 -15 105 -15 42 0 50 -4 73 -34 16 -22 47 -42 83 -57 40 -16 83
-48 149 -109 109 -102 172 -139 250 -147 93 -10 143 31 157 128 5 32 17 59 41
87 71 82 72 125 6 258 -93 188 -189 298 -286 326 -22 6 -56 26 -75 44 -19 17
-53 41 -76 52 -24 12 -52 38 -69 64 -53 81 -98 130 -168 181 l-70 50 8 134 c9
169 20 254 36 264 7 4 27 5 44 2 29 -6 51 -15 141 -62 63 -33 150 -45 234 -32
113 18 133 36 144 132 9 73 -4 86 -65 68 -41 -13 -43 -13 -63 15 -99 137 -156
185 -255 216 -48 15 -73 30 -102 63 -66 71 -120 206 -104 257 8 24 70 47 162
59 51 6 92 20 144 48 69 35 77 44 124 119 27 45 64 93 81 107 61 51 85 98 91
180 7 95 -13 343 -38 469 -20 100 -23 163 -13 217 7 35 28 40 74 16z m-726
-67 c14 -6 28 -19 31 -29 6 -19 -13 -108 -28 -126 -28 -37 -147 11 -147 59 0
23 83 108 106 108 7 0 24 -5 38 -12z m-2599 -199 c44 -11 121 -37 170 -58 50
-21 115 -46 145 -56 95 -31 122 -50 260 -186 153 -152 179 -183 220 -271 24
-50 30 -77 30 -130 0 -46 11 -102 34 -185 46 -156 117 -427 127 -483 13 -72
38 -287 44 -380 l6 -85 -36 40 c-20 22 -61 77 -91 123 -51 77 -120 142 -150
142 -7 0 -67 27 -132 60 -100 50 -137 75 -214 146 -157 146 -127 134 -334 136
-206 3 -219 0 -342 -76 -162 -100 -177 -112 -224 -170 -57 -71 -122 -192 -139
-259 -8 -34 -19 -52 -38 -62 -32 -16 -83 -70 -143 -150 -76 -100 -161 -167
-190 -149 -7 4 -8 54 -3 149 6 130 5 149 -15 221 -30 106 -29 187 5 294 37
116 100 233 206 380 49 69 104 154 121 190 38 78 40 124 16 315 -24 189 -28
250 -14 274 28 51 251 184 415 247 46 18 156 10 266 -17z m-63 -1409 c22 -6
39 -19 43 -30 4 -11 11 -21 16 -21 5 -1 14 -3 19 -4 6 -1 17 -3 26 -4 14 -1
16 -9 11 -46 -5 -48 -32 -89 -50 -78 -6 4 -54 9 -106 12 -87 6 -95 8 -114 33
-18 24 -18 30 -7 57 16 40 74 91 103 91 12 0 39 -5 59 -10z m179 -245 c-22
-130 -85 -232 -160 -256 -54 -18 -159 -13 -222 10 -94 36 -249 179 -249 231 0
14 95 150 105 150 2 0 3 -19 2 -42 -4 -101 53 -151 194 -169 109 -14 155 -3
213 54 30 29 51 61 67 106 l22 63 20 -38 c18 -36 19 -45 8 -109z m-552 -204
c95 -95 191 -136 316 -136 70 1 87 4 134 30 59 32 109 91 138 160 10 25 21 45
26 45 17 0 7 -131 -14 -175 -59 -125 -235 -192 -399 -151 -72 18 -257 104
-307 142 -29 22 -33 31 -33 73 0 26 7 71 16 100 l16 53 35 -52 c19 -28 52 -69
72 -89z m5401 -1479 c0 -4 -28 -27 -62 -51 l-63 -43 52 51 c48 47 73 62 73 43z
m-2721 -1804 c-7 -13 -25 -42 -41 -66 -16 -24 -57 -100 -90 -170 -34 -70 -63
-129 -64 -131 -2 -2 -31 17 -65 42 l-62 46 64 67 c52 55 256 234 267 234 1 0
-3 -10 -9 -22z m2620 -49 c-49 -83 -78 -117 -186 -215 -177 -159 -356 -272
-498 -312 -38 -12 -115 -23 -170 -26 -55 -4 -125 -9 -155 -12 l-55 -5 60 33
c92 51 154 96 225 164 63 60 67 62 131 68 154 15 320 111 385 222 21 36 34 46
67 54 23 6 80 26 127 45 47 18 88 34 92 34 4 1 -6 -22 -23 -50z"/>
<path d="M8500 20658 c-18 -43 -58 -353 -65 -498 -7 -162 12 -365 46 -499 35
-136 165 -369 192 -342 8 8 1 35 -22 97 -97 255 -119 360 -128 620 -5 151 18
486 36 521 4 7 69 -55 164 -155 268 -284 408 -507 536 -855 63 -172 82 -243
90 -332 6 -70 6 -70 36 -70 29 0 30 1 29 50 -3 129 -137 524 -259 765 -14 27
-71 118 -126 201 -88 131 -127 177 -282 335 -151 155 -184 184 -209 184 -20 0
-31 -7 -38 -22z"/>
<path d="M11630 12709 c-68 -12 -272 -81 -365 -123 -152 -70 -461 -288 -597
-422 -83 -82 -263 -341 -281 -404 -27 -100 18 -185 180 -341 116 -111 160
-135 283 -156 83 -14 92 -14 116 2 24 16 25 19 19 79 -14 128 26 220 110 256
107 47 197 29 255 -52 66 -90 65 -113 -13 -190 -64 -64 -152 -113 -231 -127
-33 -6 -61 -11 -62 -11 -9 0 -34 -34 -34 -46 0 -8 18 -34 40 -58 56 -60 150
-98 245 -100 67 0 75 2 210 69 161 80 185 105 185 186 0 63 -8 80 -74 173 -65
90 -112 184 -121 241 l-6 40 35 -38 c19 -21 56 -77 82 -124 95 -168 211 -273
286 -259 49 9 197 123 243 187 21 30 51 82 67 116 60 133 17 282 -75 259 -16
-4 -54 -39 -98 -91 -89 -105 -139 -133 -196 -114 -49 17 -71 36 -94 81 -24 47
-24 96 1 182 21 74 42 114 66 123 34 13 129 -28 199 -86 83 -68 149 -51 211
55 22 37 25 52 20 86 -15 95 -133 313 -283 523 -44 61 -101 88 -192 91 -42 2
-101 -2 -131 -7z"/>
<path d="M10178 11285 c-168 -111 -316 -271 -377 -410 -55 -123 -88 -228 -63
-199 5 5 28 56 51 113 85 210 153 284 468 515 23 17 43 34 43 39 0 17 -30 2
-122 -58z"/>
<path d="M10509 11089 c-24 -18 -85 -73 -135 -124 -97 -99 -133 -158 -158
-262 -24 -100 -27 -123 -13 -123 7 0 20 30 30 68 42 161 147 312 317 451 40
32 8 24 -41 -10z"/>
<path d="M10587 10990 c-164 -177 -217 -289 -217 -462 0 -77 15 -55 27 40 7
48 19 110 28 139 18 60 86 166 174 271 74 87 65 96 -12 12z"/>
</g>
</svg>
